HIERARCHY
ROOT Hips
{
	OFFSET 0.000000 0.000000 0.000000
	CHANNELS 6 Xposition Yposition Zposition Xrotation Yrotation Zrotation
	JOINT LeftUpLeg_virtual
	{
		OFFSET 0.000000 0.000000 0.000000
		CHANNELS 3 Xrotation Yrotation Zrotation
		JOINT LeftUpLeg
		{
			OFFSET 11.394100 -6.187798 -0.413800
			CHANNELS 3 Xrotation Yrotation Zrotation
			JOINT LeftLeg
			{
				OFFSET 0.430247 -32.302673 3.732800
				CHANNELS 3 Xrotation Yrotation Zrotation
				JOINT LeftFoot
				{
					OFFSET -0.430247 -48.264931 -6.423300
					CHANNELS 3 Xrotation Yrotation Zrotation
					JOINT LeftToeBase
					{
						OFFSET 4.230900 -16.068199 23.438400
						CHANNELS 3 Xrotation Yrotation Zrotation
						JOINT LeftToe_End
						{
							OFFSET 4.510700 0.695400 19.974600
							CHANNELS 3 Xrotation Yrotation Zrotation
							End Site
							{
								OFFSET 0 0 0
							}
						}
					}
				}
			}
		}
	}
	JOINT RightUpLeg_virtual
	{
		OFFSET 0.000000 0.000000 0.000000
		CHANNELS 3 Xrotation Yrotation Zrotation
		JOINT RightUpLeg
		{
			OFFSET -11.333700 -6.187798 -0.413800
			CHANNELS 3 Xrotation Yrotation Zrotation
			JOINT RightLeg
			{
				OFFSET -0.430392 -32.302628 3.733000
				CHANNELS 3 Xrotation Yrotation Zrotation
				JOINT RightFoot
				{
					OFFSET 0.430392 -48.264973 -6.423500
					CHANNELS 3 Xrotation Yrotation Zrotation
					JOINT RightToeBase
					{
						OFFSET -4.230900 -16.068199 23.438400
						CHANNELS 3 Xrotation Yrotation Zrotation
						JOINT RightToe_End
						{
							OFFSET -4.510700 0.695400 19.974600
							CHANNELS 3 Xrotation Yrotation Zrotation
							End Site
							{
								OFFSET 0 0 0
							}
						}
					}
				}
			}
		}
	}
	JOINT Spine_virtual
	{
		OFFSET 0.000000 0.000000 0.000000
		CHANNELS 3 Xrotation Yrotation Zrotation
		JOINT Spine
		{
			OFFSET -0.002400 12.777504 0.315300
			CHANNELS 3 Xrotation Yrotation Zrotation
			JOINT Spine1
			{
				OFFSET -0.002067 5.816869 0.032633
				CHANNELS 3 Xrotation Yrotation Zrotation
				JOINT Spine1_split
				{
					OFFSET -0.002067 5.816869 0.032633
					CHANNELS 3 Xrotation Yrotation Zrotation
					JOINT Spine2
					{
						OFFSET -0.002067 5.816869 0.032633
						CHANNELS 3 Xrotation Yrotation Zrotation
						JOINT Neck_virtual
						{
							OFFSET 0.000000 0.000000 0.000000
							CHANNELS 3 Xrotation Yrotation Zrotation
							JOINT Neck
							{
								OFFSET -0.003700 21.199493 -0.826900
								CHANNELS 3 Xrotation Yrotation Zrotation
								JOINT Head
								{
									OFFSET 0.000000 20.442200 4.834800
									CHANNELS 3 Xrotation Yrotation Zrotation
									JOINT HeadTop_End
									{
										OFFSET 0.000000 34.668396 4.968400
										CHANNELS 3 Xrotation Yrotation Zrotation
										End Site
										{
											OFFSET 0 0 0
										}
									}
								}
							}
						}
						JOINT LeftShoulder_virtual
						{
							OFFSET 0.000000 0.000000 0.000000
							CHANNELS 3 Xrotation Yrotation Zrotation
							JOINT LeftShoulder
							{
								OFFSET 3.288150 8.794197 -1.372250
								CHANNELS 3 Xrotation Yrotation Zrotation
								JOINT LeftShoulder_split
								{
									OFFSET 3.288150 8.794197 -1.372250
									CHANNELS 3 Xrotation Yrotation Zrotation
									JOINT LeftArm
									{
										OFFSET 11.953299 -2.279007 -0.146200
										CHANNELS 3 Xrotation Yrotation Zrotation
										JOINT LeftForeArm
										{
											OFFSET 18.448900 0.000000 0.000000
											CHANNELS 3 Xrotation Yrotation Zrotation
											JOINT LeftHand
											{
												OFFSET 29.527798 0.000000 0.000000
												CHANNELS 3 Xrotation Yrotation Zrotation
												End Site
												{
													OFFSET 0 0 0
												}
											}
										}
									}
								}
							}
						}
						JOINT RightShoulder_virtual
						{
							OFFSET 0.000000 0.000000 0.000000
							CHANNELS 3 Xrotation Yrotation Zrotation
							JOINT RightShoulder
							{
								OFFSET -3.249400 8.794197 -1.372250
								CHANNELS 3 Xrotation Yrotation Zrotation
								JOINT RightShoulder_split
								{
									OFFSET -3.249400 8.794197 -1.372250
									CHANNELS 3 Xrotation Yrotation Zrotation
									JOINT RightArm
									{
										OFFSET -11.953299 -2.279007 -0.146200
										CHANNELS 3 Xrotation Yrotation Zrotation
										JOINT RightForeArm
										{
											OFFSET -18.448900 0.000000 0.000000
											CHANNELS 3 Xrotation Yrotation Zrotation
											JOINT RightHand
											{
												OFFSET -29.527802 0.000000 0.000000
												CHANNELS 3 Xrotation Yrotation Zrotation
												End Site
												{
													OFFSET 0 0 0
												}
											}
										}
									}
								}
							}
						}
					}
				}
			}
		}
	}
}
MOTION
Frames: 8
Frame Time: 0.03333333
5.513471 57.343212 17.065664 0.000000 0.000000 0.000000 3.819741 15.610705 1.414330 -97.459997 -13.807431 10.542193 81.452246 0.526755 -1.294100 16.542833 -9.967786 -12.632982 -6.824253 -0.709101 -3.836215 0.000000 0.000000 0.000000 3.383806 16.812953 1.400227 -97.406188 13.438168 -8.182564 84.680849 -0.498706 0.609096 18.224097 -3.975156 15.340649 4.309834 0.245458 -16.657911 0.000000 0.000000 0.000000 2.508835 19.673028 1.736913 5.583780 -0.415700 1.390956 5.258148 -1.149327 -0.844865 0.142512 -0.077587 0.091253 0.000000 0.000000 0.000000 5.395298 1.110085 -1.014336 -6.172310 10.748188 2.513482 -37.548063 -13.200542 12.208511 0.000000 0.000000 0.000000 3.168939 -1.500708 -1.728564 -1.064580 -20.441260 -10.183391 -3.712042 2.927223 -4.036345 10.595023 -10.914197 -44.904891 16.803712 -70.235477 12.015648 0.000000 0.000000 0.000000 4.283840 -0.558681 -0.302316 -2.394391 -0.174989 6.585846 2.346821 2.317395 5.971989 7.614118 35.726797 61.081432 -18.883282 61.536589 13.735701 0.000000 0.000000 0.000000 
5.594110 57.325935 17.049894 0.000000 0.000000 0.000000 3.594143 15.439036 1.519405 -97.359695 -13.906902 10.492540 81.441892 0.508862 -1.362722 16.819687 -9.962213 -12.518002 -6.841553 -0.678588 -3.873344 0.000000 0.000000 0.000000 3.216569 16.662052 1.541074 -97.212430 13.293655 -8.347628 84.424444 -0.529402 0.665775 18.159634 -3.953148 15.193025 4.043052 0.295129 -16.677329 0.000000 0.000000 0.000000 2.239797 19.694159 1.774269 5.642617 -0.422520 1.264222 5.348135 -1.068349 -0.733831 0.174014 -0.065919 0.023812 0.000000 0.000000 0.000000 5.321525 1.236061 -0.955217 -5.972689 10.808753 2.399071 -37.382609 -13.799397 12.498690 0.000000 0.000000 0.000000 3.227875 -1.359641 -1.672902 -1.111657 -20.626287 -10.357269 -2.856678 2.442751 -3.532810 10.256711 -10.987117 -45.495098 18.146385 -69.184181 12.839819 0.000000 0.000000 0.000000 4.475239 -0.428164 -0.297349 -2.294942 -0.088444 6.945566 1.951000 2.057716 5.660576 7.411314 33.721296 59.717184 -17.565478 60.179984 12.944457 0.000000 0.000000 0.000000 
5.632004 57.328125 17.019260 0.000000 0.000000 0.000000 3.135932 15.262505 1.737862 -97.016560 -13.997718 10.385914 81.319604 0.568549 -1.394469 17.174374 -10.105255 -12.293014 -7.065568 -0.637285 -3.908830 0.000000 0.000000 0.000000 2.746627 16.383860 1.799755 -96.839399 13.122942 -8.563537 84.121812 -0.499267 0.714609 18.032804 -3.860723 15.078218 3.765391 0.363697 -16.701985 0.000000 0.000000 0.000000 1.874632 19.777737 1.786093 5.594651 -0.460787 0.858395 5.724432 -1.056753 -0.510443 0.166345 -0.045955 -0.031552 0.000000 0.000000 0.000000 5.473507 1.337119 -0.788449 -5.092783 10.622231 2.500031 -37.550440 -14.841625 12.399110 0.000000 0.000000 0.000000 3.491297 -1.239596 -1.504955 -1.095092 -20.949737 -10.540421 -2.372195 2.231338 -2.271857 9.264587 -11.407610 -46.145212 18.781190 -69.711363 13.626613 0.000000 0.000000 0.000000 4.957221 -0.351106 -0.231971 -2.164293 0.366497 7.662893 1.585030 2.089089 5.353288 7.684747 31.308361 56.528845 -16.980468 60.648446 12.817793 0.000000 0.000000 0.000000 
5.610289 57.370129 16.980574 0.000000 0.000000 0.000000 2.515644 15.183762 2.026886 -96.495833 -14.086419 10.242163 81.123994 0.695689 -1.394374 17.493931 -10.351789 -12.034660 -7.364670 -0.592320 -3.925404 0.000000 0.000000 0.000000 2.113851 16.107987 2.132053 -96.385027 12.984648 -8.806050 83.816557 -0.390897 0.748397 17.848172 -3.711741 14.983898 3.612934 0.415522 -16.731901 0.000000 0.000000 0.000000 1.452362 19.890701 1.796965 5.448634 -0.526826 0.253269 6.356848 -1.098404 -0.221369 0.160750 -0.090987 -0.036792 0.000000 0.000000 0.000000 5.863232 1.389967 -0.538099 -3.714467 10.195404 2.727416 -38.234825 -16.399861 11.737901 0.000000 0.000000 0.000000 3.951092 -1.125845 -1.262474 -0.953037 -21.343426 -10.512647 -2.199919 2.060455 -0.948511 7.369956 -11.931490 -46.299359 19.590881 -72.531760 15.206212 0.000000 0.000000 0.000000 5.673281 -0.322076 -0.126934 -2.017959 1.204984 8.480457 1.249464 1.870367 5.156094 7.860020 28.961614 52.281635 -17.885187 64.371862 14.150000 0.000000 0.000000 0.000000 
5.542193 57.434265 16.904095 0.000000 0.000000 0.000000 1.805263 15.155958 2.341760 -95.928614 -14.202777 10.059504 80.958656 0.871379 -1.366204 17.749526 -10.615450 -11.852647 -7.519212 -0.549982 -3.925138 0.000000 0.000000 0.000000 1.404239 15.907155 2.465830 -95.940027 12.894405 -9.054380 83.560514 -0.224979 0.778175 17.648859 -3.555981 14.847084 3.649314 0.436905 -16.784416 0.000000 0.000000 0.000000 1.025231 19.947364 1.806806 5.205622 -0.625526 -0.409180 7.195002 -1.154657 0.087256 0.142934 -0.109068 0.008939 0.000000 0.000000 0.000000 6.458554 1.377131 -0.251909 -2.008209 9.549249 2.924554 -39.291626 -18.235837 10.529911 0.000000 0.000000 0.000000 4.593775 -1.047143 -1.009824 -0.657028 -21.710439 -10.221151 -2.112926 1.508770 -0.068112 4.713132 -12.378955 -45.368937 22.137476 -77.498441 18.885717 0.000000 0.000000 0.000000 6.538401 -0.326365 -0.000109 -1.888394 2.384562 9.089855 1.513448 1.143120 5.365003 7.364829 27.067152 47.633473 -22.679541 71.678744 19.280857 0.000000 0.000000 0.000000 
5.455860 57.487614 16.836170 0.000000 0.000000 0.000000 1.146323 15.052444 2.627094 -95.422333 -14.369482 9.856728 80.825255 1.107374 -1.345703 17.850397 -10.774681 -11.815092 -7.446662 -0.518224 -3.893613 0.000000 0.000000 0.000000 0.781240 15.701908 2.743798 -95.653541 12.854953 -9.301466 83.399519 -0.042012 0.823706 17.487239 -3.431535 14.637702 3.816887 0.429395 -16.878634 0.000000 0.000000 0.000000 0.632406 19.919029 1.875060 4.862841 -0.776804 -1.003604 8.177205 -1.194315 0.347621 0.123932 -0.119693 0.029576 0.000000 0.000000 0.000000 7.201706 1.321144 0.006649 -0.143693 8.840680 2.943705 -40.619763 -20.073113 8.895971 0.000000 0.000000 0.000000 5.373874 -0.990906 -0.806967 -0.188696 -21.886356 -9.541183 -2.104250 -0.030543 0.469945 1.137008 -12.995512 -42.861626 33.729376 -83.966029 31.678844 0.000000 0.000000 0.000000 7.452820 -0.342953 0.111879 -1.767572 3.926281 9.147853 2.014323 0.663907 6.244129 5.717434 25.479141 43.078690 -43.383282 80.776522 40.199741 0.000000 0.000000 0.000000 
5.376393 57.503048 16.809843 0.000000 0.000000 0.000000 0.748739 14.897327 2.824781 -95.040238 -14.527517 9.648986 80.739823 1.458158 -1.392941 17.695021 -10.734007 -11.868959 -7.291410 -0.504555 -3.803435 0.000000 0.000000 0.000000 0.378975 15.464583 2.928210 -95.630530 12.853068 -9.574215 83.388427 0.157060 0.890652 17.421077 -3.343973 14.399488 4.021262 0.398109 -17.021147 0.000000 0.000000 0.000000 0.423486 19.801161 1.991605 4.379284 -1.028137 -1.464603 9.185452 -1.229516 0.501411 0.117061 -0.209436 0.023114 0.000000 0.000000 0.000000 8.016800 1.234007 0.192832 1.650201 8.185642 2.619811 -41.996238 -21.493026 7.014378 0.000000 0.000000 0.000000 6.194553 -0.954211 -0.682445 0.421238 -21.747693 -8.314856 -2.134330 -2.277400 0.478560 -3.568708 -14.019478 -38.437515 141.252711 -86.847809 140.320704 0.000000 0.000000 0.000000 8.281481 -0.387808 0.184856 -1.613835 5.716293 8.517137 2.576437 0.254521 7.634459 2.199924 24.019195 38.964508 -125.656438 82.831576 122.535233 0.000000 0.000000 0.000000 
5.324074 57.504745 16.846626 0.000000 0.000000 0.000000 0.704164 14.687729 2.896265 -94.846233 -14.670676 9.436000 80.766113 1.893659 -1.497432 17.328492 -10.505931 -12.036824 -7.216122 -0.500911 -3.681736 0.000000 0.000000 0.000000 0.289228 15.173257 3.007259 -95.890986 12.894365 -9.868884 83.546587 0.382093 0.962749 17.488896 -3.254636 14.212206 4.204891 0.352581 -17.194361 0.000000 0.000000 0.000000 0.560968 19.581346 2.064087 3.796742 -1.411663 -1.764049 10.082408 -1.253879 0.532556 0.115809 -0.299982 0.013926 0.000000 0.000000 0.000000 8.751734 1.121205 0.292263 3.162985 7.652653 1.884887 -43.228821 -22.170908 5.168563 0.000000 0.000000 0.000000 6.904223 -0.951280 -0.660820 1.122900 -21.109502 -6.488545 -2.244695 -4.063846 0.317793 -9.982173 -15.764060 -32.188865 175.933078 -80.421454 175.903859 0.000000 0.000000 0.000000 8.929176 -0.453017 0.205007 -1.383780 7.602746 6.993864 3.124641 -0.347348 9.099971 -3.535195 22.405203 35.411987 -157.151274 75.362156 153.881252 0.000000 0.000000 0.000000 
